<svg height="512" viewBox="0 0 64 64" width="512" xmlns="http://www.w3.org/2000/svg"><g id="Layer_26" data-name="Layer 26"><path d="m10 16h44a4 4 0 0 1 4 4v30a0 0 0 0 1 0 0h-52a0 0 0 0 1 0 0v-30a4 4 0 0 1 4-4z" fill="#a0a8b2"/><path d="m10 20h44v26h-44z" fill="#c7e2fb"/><path d="m2 58v-4l4-4h52l4 4v4a4 4 0 0 1 -4 4h-52a4 4 0 0 1 -4-4z" fill="#c1c8d1"/><path d="m2 54v4a4 4 0 0 0 4 4h52a4 4 0 0 0 4-4v-4z" fill="#a0a8b2"/><circle cx="32" cy="17" fill="#4472b0" r="15"/><path d="m38.88 10.38a15.61 15.61 0 0 0 4.12-2.92l.33-.33a15.64 15.64 0 0 0 -1.41-1.41l-.33.33a13.61 13.61 0 0 1 -3.41 2.47 20.17 20.17 0 0 0 -4.08-5.88l-.56-.56a13.92 13.92 0 0 0 -3 0l-.54.56a20.17 20.17 0 0 0 -4.08 5.88 13.61 13.61 0 0 1 -3.41-2.47l-.33-.33a15.64 15.64 0 0 0 -1.41 1.41l.33.33a15.61 15.61 0 0 0 4.07 2.92 20.05 20.05 0 0 0 -1.12 5.62h-7c0 .33-.05.66-.05 1s0 .67.05 1h7a20.05 20.05 0 0 0 1.07 5.62 15.61 15.61 0 0 0 -4.07 2.92l-.33.33a15.64 15.64 0 0 0 1.41 1.41l.33-.33a13.61 13.61 0 0 1 3.41-2.47 20.17 20.17 0 0 0 4.13 5.88l.56.56a13.92 13.92 0 0 0 3 0l.56-.56a20.17 20.17 0 0 0 4.08-5.88 13.61 13.61 0 0 1 3.34 2.52l.33.33a15.64 15.64 0 0 0 1.41-1.41l-.28-.38a15.61 15.61 0 0 0 -4.07-2.92 20.05 20.05 0 0 0 1.07-5.62h7c0-.33 0-.66 0-1s0-.67 0-1h-7a20.05 20.05 0 0 0 -1.12-5.62zm-7.88 19.2a18.58 18.58 0 0 1 -3.29-4.87 13.07 13.07 0 0 1 3.29-.66zm0-7.53a15.58 15.58 0 0 0 -4 .8 18.34 18.34 0 0 1 -.95-4.85h4.95zm0-6.05h-4.95a18.34 18.34 0 0 1 .95-4.85 15.58 15.58 0 0 0 4 .8zm0-6a13.07 13.07 0 0 1 -3.29-.66 18.58 18.58 0 0 1 3.29-4.92zm2-5.5a18.26 18.26 0 0 1 3.29 4.84 13.07 13.07 0 0 1 -3.29.66zm0 25.1v-5.5a13.07 13.07 0 0 1 3.29.66 18.26 18.26 0 0 1 -3.29 4.79zm4-6.7a15.58 15.58 0 0 0 -4-.8v-4.1h5a18.34 18.34 0 0 1 -1 4.85zm-4-6.9v-4a15.58 15.58 0 0 0 4-.8 18.34 18.34 0 0 1 1 4.8z" fill="#698ec0"/><g fill="#fff"><path d="m24 43a1 1 0 0 1 -.83-.45l-1.17-1.75-1.17 1.75a1 1 0 0 1 -1.83-.55v-6h2v2.7l.17-.25a1 1 0 0 1 1.66 0l.17.25v-2.7h2v6a1 1 0 0 1 -.71 1 1 1 0 0 1 -.29 0z"/><path d="m32 43a1 1 0 0 1 -.83-.45l-1.17-1.75-1.17 1.75a1 1 0 0 1 -1.83-.55v-6h2v2.7l.17-.25a1 1 0 0 1 1.66 0l.17.25v-2.7h2v6a1 1 0 0 1 -.71 1 1 1 0 0 1 -.29 0z"/><path d="m40 43a1 1 0 0 1 -.83-.45l-1.17-1.75-1.17 1.75a1 1 0 0 1 -1.83-.55v-6h2v2.7l.17-.25a1 1 0 0 1 1.66 0l.17.25v-2.7h2v6a1 1 0 0 1 -.71 1 1 1 0 0 1 -.29 0z"/><path d="m43 41h2v2h-2z"/></g><path d="m50 5h6v-3l6 5-6 5v-3h-6z" fill="#f7d881"/><path d="m14 5h-6v-3l-6 5 6 5v-3h6z" fill="#f7d881"/></g></svg>