<svg height="512" viewBox="0 0 58 58" width="512" xmlns="http://www.w3.org/2000/svg"><g id="Page-1" fill="none" fill-rule="evenodd"><g id="076---Hair-Cut-Date" fill-rule="nonzero"><path id="Shape" d="m50 8 7.984 44.825c.0517534.2911699-.0280265.5903144-.2179004.8170439-.1898738.2267294-.4703661.357788-.7660996.3579561h-9z" fill="#d1d4d1"/><path id="Shape" d="m50 15v42c0 .5522847-.4477153 1-1 1h-48c-.55228475 0-1-.4477153-1-1v-42z" fill="#ecf0f1"/><g fill="#f29c1f"><path id="Shape" d="m7.751 27.663c-.4043959-.0000863-.76893405-.2437275-.92367798-.6173454-.15474393-.373618-.06922994-.8036603.21667798-1.0896546l4.95-4.95c.2510745-.2599566.6228779-.3642126.9725073-.2726972.3496295.0915155.6226744.3645604.7141899.7141899.0915154.3496294-.0127406.7214328-.2726972.9725073l-4.95 4.95c-.18749273.1875494-.44180519.2929434-.707.293z"/><path id="Shape" d="m13.408 33.319c-.4043959-.0000863-.7689341-.2437275-.923678-.6173454-.1547439-.373618-.0692299-.8036603.216678-1.0896546l2.829-2.828c.252944-.2525868.6214274-.3510426.966646-.25828s.6147255.3626507.707.708c.0922745.3453494-.006702.7136932-.259646.96628l-2.829 2.828c-.1878197.1868162-.4420919.2914742-.707.291z"/><path id="Shape" d="m10.579 30.491c-.4043959-.0000863-.76893405-.2437275-.92367798-.6173454-.15474393-.373618-.06922994-.8036603.21667798-1.0896546l2.828-2.828c.2510745-.2599566.6228779-.3642126.9725073-.2726972.3496295.0915155.6226744.3645604.7141899.7141899.0915154.3496294-.0127406.7214328-.2726972.9725073l-2.828 2.83c-.1878197.1868162-.4420919.2914742-.707.291z"/><path id="Shape" d="m16.237 36.148c-.4043959-.0000863-.7689341-.2437275-.923678-.6173454-.1547439-.373618-.0692299-.8036603.216678-1.0896546l2.828-2.829c.3923789-.3789722 1.0160848-.3735524 1.4018186.0121814s.3911536 1.0094397.0121814 1.4018186l-2.828 2.829c-.1874927.1875494-.4418052.2929434-.707.293z"/></g><path id="Shape" d="m50 8v7h-50v-6c0-.55228475.44771525-1 1-1z" fill="#e64c3c"/><rect id="Rectangle-path" fill="#95a5a5" height="11" rx="2" width="4" x="6"/><rect id="Rectangle-path" fill="#95a5a5" height="11" rx="2" width="4" x="17"/><rect id="Rectangle-path" fill="#95a5a5" height="11" rx="2" width="4" x="28"/><rect id="Rectangle-path" fill="#95a5a5" height="11" rx="2" width="4" x="39"/><path id="Shape" d="m22.029 35.314-12.171-12.172 2.121-2.121c.375096-.375248.8839266-.5860729 1.4145-.5860729s1.039404.2108249 1.4145.5860729l10.757 10.757 5.655 5.662 11.9 11.44c1.1014354 1.182039 1.0689355 3.0240389-.0735128 4.1664872s-2.9844482 1.1749482-4.1664872.0735128c-.6090167-.5964999-.9268424-1.4294223-.87-2.28l-10.17-10.02z" fill="#f0c419"/><path id="Shape" d="m42.54 34.61c-1.0632727 1.0599484-2.5459935 1.586952-4.0397149 1.4358362-1.4937215-.1511157-2.8408482-.9644074-3.6702851-2.2158362l-19.1 19.1c-.3229923.3217151-.7465607.5229101-1.2.57l-4.42.49c-.30112861.0310794-.60076888-.0712368-.82-.28l26.17-26.17c1.2629339-1.2647202 3.1046531-1.7596026 4.8313998-1.2982299s3.0761871 1.8089071 3.54 3.535-.0284659 3.5685097-1.2913998 4.8332299z" fill="#7f8c8d"/><path id="Shape" d="m35.46 27.54-26.17 26.17c-.20876323-.2192311-.31107941-.5188714-.28-.82l.49-4.42c.04708989-.4534393.24828489-.8770077.57-1.2l19.1-19.1c-1.7636001-1.1668191-2.6024624-3.3169394-2.0950103-5.3698019s2.2514763-3.5645128 4.3556003-3.7752597 4.1133075.9249859 5.0178202 2.8364275c.9045128 1.9114415.5087438 4.1852212-.9884102 5.6786341z" fill="#95a5a5"/><circle id="Oval" cx="32" cy="24" fill="#3f5c6c" r="1"/><circle id="Oval" cx="39" cy="31" fill="#3f5c6c" r="1"/></g></g></svg>